<svg width="15" height="15" viewBox="0 0 15 15" fill="none" xmlns="http://www.w3.org/2000/svg">
    <path d="M7.49984 8.95832L2.39567 14.0625C2.2047 14.2535 1.96164 14.3489 1.6665 14.3489C1.37136 14.3489 1.12831 14.2535 0.937337 14.0625C0.746365 13.8715 0.650879 13.6285 0.650879 13.3333C0.650879 13.0382 0.746365 12.7951 0.937337 12.6042L6.0415 7.49999L0.937337 2.39582C0.746365 2.20485 0.650879 1.9618 0.650879 1.66666C0.650879 1.37152 0.746365 1.12846 0.937337 0.937489C1.12831 0.746517 1.37136 0.651031 1.6665 0.651031C1.96164 0.651031 2.2047 0.746517 2.39567 0.937489L7.49984 6.04166L12.604 0.937489C12.795 0.746517 13.038 0.651031 13.3332 0.651031C13.6283 0.651031 13.8714 0.746517 14.0623 0.937489C14.2533 1.12846 14.3488 1.37152 14.3488 1.66666C14.3488 1.9618 14.2533 2.20485 14.0623 2.39582L8.95817 7.49999L14.0623 12.6042C14.2533 12.7951 14.3488 13.0382 14.3488 13.3333C14.3488 13.6285 14.2533 13.8715 14.0623 14.0625C13.8714 14.2535 13.6283 14.3489 13.3332 14.3489C13.038 14.3489 12.795 14.2535 12.604 14.0625L7.49984 8.95832Z" fill="#667467"/>
</svg>
