<svg width="20" height="20" viewBox="0 0 20 20" fill="none" xmlns="http://www.w3.org/2000/svg">
    <path d="M10 20C7.34784 20 4.8043 18.9464 2.92893 17.0711C1.05357 15.1957 0 12.6522 0 10C0 7.34784 1.05357 4.8043 2.92893 2.92893C4.8043 1.05357 7.34784 0 10 0C12.6522 0 15.1957 1.05357 17.0711 2.92893C18.9464 4.8043 20 7.34784 20 10C20 12.6522 18.9464 15.1957 17.0711 17.0711C15.1957 18.9464 12.6522 20 10 20ZM4.4 15.71C6.05114 14.5857 8.00245 13.9845 10 13.9845C11.9976 13.9845 13.9489 14.5857 15.6 15.71C16.7348 14.5977 17.5127 13.1725 17.8344 11.6164C18.156 10.0602 18.007 8.44351 17.4063 6.97239C16.8055 5.50126 15.7802 4.24237 14.4612 3.35623C13.1421 2.4701 11.5891 1.99686 10 1.99686C8.41094 1.99686 6.85787 2.4701 5.53882 3.35623C4.21977 4.24237 3.19451 5.50126 2.59375 6.97239C1.99299 8.44351 1.84395 10.0602 2.16564 11.6164C2.48734 13.1725 3.26518 14.5977 4.4 15.71ZM10.52 8.07L13.54 5.05L14.95 6.46L11.93 9.48C12.0448 9.90535 12.0159 10.3567 11.8478 10.7639C11.6797 11.1712 11.3819 11.5115 11.0005 11.7321C10.6192 11.9528 10.1757 12.0413 9.73884 11.984C9.30202 11.9266 8.89635 11.7267 8.58483 11.4152C8.2733 11.1036 8.07336 10.698 8.01604 10.2612C7.95872 9.82434 8.04724 9.38082 8.26785 8.99947C8.48846 8.61812 8.82881 8.32028 9.23606 8.15221C9.6433 7.98414 10.0946 7.95524 10.52 8.07Z" fill="white"/>
</svg>
