<svg width="24" height="25" viewBox="0 0 24 25" fill="none" xmlns="http://www.w3.org/2000/svg">
    <path d="M7.8 2.83179H16.2C19.4 2.83179 22 5.43179 22 8.63179V17.0318C22 18.57 21.3889 20.0453 20.3012 21.133C19.2135 22.2207 17.7383 22.8318 16.2 22.8318H7.8C4.6 22.8318 2 20.2318 2 17.0318V8.63179C2 7.09353 2.61107 5.61828 3.69878 4.53057C4.78649 3.44286 6.26174 2.83179 7.8 2.83179ZM7.6 4.83179C6.64522 4.83179 5.72955 5.21107 5.05442 5.8862C4.37928 6.56133 4 7.47701 4 8.43179V17.2318C4 19.2218 5.61 20.8318 7.6 20.8318H16.4C17.3548 20.8318 18.2705 20.4525 18.9456 19.7774C19.6207 19.1022 20 18.1866 20 17.2318V8.43179C20 6.44179 18.39 4.83179 16.4 4.83179H7.6ZM17.25 6.33179C17.5815 6.33179 17.8995 6.46348 18.1339 6.6979C18.3683 6.93232 18.5 7.25027 18.5 7.58179C18.5 7.91331 18.3683 8.23125 18.1339 8.46567C17.8995 8.70009 17.5815 8.83179 17.25 8.83179C16.9185 8.83179 16.6005 8.70009 16.3661 8.46567C16.1317 8.23125 16 7.91331 16 7.58179C16 7.25027 16.1317 6.93232 16.3661 6.6979C16.6005 6.46348 16.9185 6.33179 17.25 6.33179ZM12 7.83179C13.3261 7.83179 14.5979 8.35857 15.5355 9.29625C16.4732 10.2339 17 11.5057 17 12.8318C17 14.1579 16.4732 15.4296 15.5355 16.3673C14.5979 17.305 13.3261 17.8318 12 17.8318C10.6739 17.8318 9.40215 17.305 8.46447 16.3673C7.52678 15.4296 7 14.1579 7 12.8318C7 11.5057 7.52678 10.2339 8.46447 9.29625C9.40215 8.35857 10.6739 7.83179 12 7.83179ZM12 9.83179C11.2044 9.83179 10.4413 10.1479 9.87868 10.7105C9.31607 11.2731 9 12.0361 9 12.8318C9 13.6274 9.31607 14.3905 9.87868 14.9531C10.4413 15.5157 11.2044 15.8318 12 15.8318C12.7956 15.8318 13.5587 15.5157 14.1213 14.9531C14.6839 14.3905 15 13.6274 15 12.8318C15 12.0361 14.6839 11.2731 14.1213 10.7105C13.5587 10.1479 12.7956 9.83179 12 9.83179Z" fill="white"/>
</svg>
