<svg width="18" height="19" viewBox="0 0 18 19" fill="none" xmlns="http://www.w3.org/2000/svg">
    <path d="M16 0.831787C16.5304 0.831787 17.0391 1.0425 17.4142 1.41757C17.7893 1.79265 18 2.30135 18 2.83179V16.8318C18 17.3622 17.7893 17.8709 17.4142 18.246C17.0391 18.6211 16.5304 18.8318 16 18.8318H2C1.46957 18.8318 0.960859 18.6211 0.585786 18.246C0.210714 17.8709 0 17.3622 0 16.8318V2.83179C0 2.30135 0.210714 1.79265 0.585786 1.41757C0.960859 1.0425 1.46957 0.831787 2 0.831787H16ZM15.5 16.3318V11.0318C15.5 10.1672 15.1565 9.33799 14.5452 8.72662C13.9338 8.11525 13.1046 7.77179 12.24 7.77179C11.39 7.77179 10.4 8.29179 9.92 9.07179V7.96179H7.13V16.3318H9.92V11.4018C9.92 10.6318 10.54 10.0018 11.31 10.0018C11.6813 10.0018 12.0374 10.1493 12.2999 10.4118C12.5625 10.6744 12.71 11.0305 12.71 11.4018V16.3318H15.5ZM3.88 6.39179C4.32556 6.39179 4.75288 6.21479 5.06794 5.89973C5.383 5.58467 5.56 5.15735 5.56 4.71179C5.56 3.78179 4.81 3.02179 3.88 3.02179C3.43178 3.02179 3.00193 3.19984 2.68499 3.51678C2.36805 3.83371 2.19 4.26357 2.19 4.71179C2.19 5.64179 2.95 6.39179 3.88 6.39179ZM5.27 16.3318V7.96179H2.5V16.3318H5.27Z" fill="white"/>
</svg>
