<svg width="25" height="26" viewBox="0 0 25 26" fill="none" xmlns="http://www.w3.org/2000/svg">
    <path d="M12.5 14.0417C14.2259 14.0417 15.625 12.6426 15.625 10.9167C15.625 9.19086 14.2259 7.79175 12.5 7.79175C10.7741 7.79175 9.375 9.19086 9.375 10.9167C9.375 12.6426 10.7741 14.0417 12.5 14.0417Z" stroke="white" stroke-width="1.66667" stroke-linecap="round" stroke-linejoin="round"/>
    <path d="M12.4998 2.58337C10.2897 2.58337 8.17008 3.46135 6.60728 5.02415C5.04448 6.58695 4.1665 8.70657 4.1665 10.9167C4.1665 12.8875 4.58525 14.1771 5.729 15.6042L12.4998 23.4167L19.2707 15.6042C20.4144 14.1771 20.8332 12.8875 20.8332 10.9167C20.8332 8.70657 19.9552 6.58695 18.3924 5.02415C16.8296 3.46135 14.71 2.58337 12.4998 2.58337Z" stroke="white" stroke-width="1.66667" stroke-linecap="round" stroke-linejoin="round"/>
</svg>
