<svg width="20" height="20" viewBox="0 0 20 20" fill="none" xmlns="http://www.w3.org/2000/svg">
    <path d="M3.84667 15.8333C3.46278 15.8333 3.1425 15.705 2.88583 15.4483C2.62917 15.1917 2.50056 14.8711 2.5 14.4867V5.51333C2.5 5.12944 2.62861 4.80916 2.88583 4.5525C3.14306 4.29583 3.46306 4.16722 3.84583 4.16666H16.1542C16.5375 4.16666 16.8575 4.29528 17.1142 4.5525C17.3708 4.80972 17.4994 5.13 17.5 5.51333V14.4875C17.5 14.8708 17.3714 15.1911 17.1142 15.4483C16.8569 15.7056 16.5369 15.8339 16.1542 15.8333H3.84667ZM16.6667 5.7375L10.3733 9.8575C10.3144 9.88805 10.255 9.91389 10.195 9.935C10.1344 9.95555 10.0694 9.96583 10 9.96583C9.93056 9.96583 9.86556 9.95555 9.805 9.935C9.74444 9.91444 9.685 9.88861 9.62667 9.8575L3.33333 5.73666V14.4867C3.33333 14.6367 3.38139 14.7597 3.4775 14.8558C3.57361 14.9519 3.69667 15 3.84667 15H16.1542C16.3036 15 16.4264 14.9519 16.5225 14.8558C16.6186 14.7597 16.6667 14.6367 16.6667 14.4867V5.7375ZM10 9.16666L16.41 5H3.59L10 9.16666ZM3.33333 5.91333V5.2375V5.26583V5V5.26666V5.22333V5.91333Z" fill="white"/>
</svg>
