<svg width="25" height="25" viewBox="0 0 25 25" fill="none" xmlns="http://www.w3.org/2000/svg">
    <path d="M4.1665 6.24998C4.1665 5.97371 4.27625 5.70876 4.4716 5.51341C4.66695 5.31806 4.9319 5.20831 5.20817 5.20831H19.7915C20.0678 5.20831 20.3327 5.31806 20.5281 5.51341C20.7234 5.70876 20.8332 5.97371 20.8332 6.24998C20.8332 6.52625 20.7234 6.7912 20.5281 6.98655C20.3327 7.1819 20.0678 7.29165 19.7915 7.29165H5.20817C4.9319 7.29165 4.66695 7.1819 4.4716 6.98655C4.27625 6.7912 4.1665 6.52625 4.1665 6.24998ZM4.1665 12.5C4.1665 12.2237 4.27625 11.9588 4.4716 11.7634C4.66695 11.5681 4.9319 11.4583 5.20817 11.4583H19.7915C20.0678 11.4583 20.3327 11.5681 20.5281 11.7634C20.7234 11.9588 20.8332 12.2237 20.8332 12.5C20.8332 12.7762 20.7234 13.0412 20.5281 13.2365C20.3327 13.4319 20.0678 13.5416 19.7915 13.5416H5.20817C4.9319 13.5416 4.66695 13.4319 4.4716 13.2365C4.27625 13.0412 4.1665 12.7762 4.1665 12.5ZM5.20817 17.7083C4.9319 17.7083 4.66695 17.8181 4.4716 18.0134C4.27625 18.2088 4.1665 18.4737 4.1665 18.75C4.1665 19.0262 4.27625 19.2912 4.4716 19.4865C4.66695 19.6819 4.9319 19.7916 5.20817 19.7916H19.7915C20.0678 19.7916 20.3327 19.6819 20.5281 19.4865C20.7234 19.2912 20.8332 19.0262 20.8332 18.75C20.8332 18.4737 20.7234 18.2088 20.5281 18.0134C20.3327 17.8181 20.0678 17.7083 19.7915 17.7083H5.20817Z" fill="#667467"/>
</svg>
