<svg width="25" height="25" viewBox="0 0 25 25" fill="none" xmlns="http://www.w3.org/2000/svg">
    <path d="M15.4834 16.262L17.1033 14.6422C17.3382 14.4073 17.6568 14.2753 17.989 14.2753C18.3212 14.2753 18.6398 14.4073 18.8747 14.6422L22.6332 18.4006C22.8681 18.6355 23 18.9541 23 19.2863C23 19.6185 22.8681 19.9371 22.6332 20.1721L21.0897 21.7155C20.6825 22.1228 20.1991 22.4458 19.6671 22.6662C19.1351 22.8866 18.5649 23 17.989 23C17.4131 23 16.8429 22.8866 16.3109 22.6662C15.7789 22.4458 15.2955 22.1228 14.8883 21.7155L4.28445 11.1117C3.87723 10.7045 3.55421 10.2211 3.33382 9.68911C3.11343 9.15709 3 8.58686 3 8.011C3 7.43513 3.11343 6.86491 3.33382 6.33288C3.55421 5.80086 3.87723 5.31745 4.28445 4.91028L5.82792 3.36681C6.06286 3.13194 6.38146 3 6.71366 3C7.04586 3 7.36447 3.13194 7.5994 3.36681L11.3579 7.12525C11.5927 7.36019 11.7247 7.67879 11.7247 8.011C11.7247 8.3432 11.5927 8.6618 11.3579 8.89674L9.73796 10.5166L15.4834 16.262ZM6.71366 4.25255L5.17019 5.79602C4.87927 6.08687 4.64849 6.43218 4.49104 6.81223C4.33359 7.19228 4.25255 7.59962 4.25255 8.011C4.25255 8.42237 4.33359 8.82972 4.49104 9.20977C4.64849 9.58982 4.87927 9.93513 5.17019 10.226L15.774 20.8298C16.0649 21.1207 16.4102 21.3515 16.7902 21.509C17.1703 21.6664 17.5776 21.7475 17.989 21.7475C18.4004 21.7475 18.8077 21.6664 19.1878 21.509C19.5678 21.3515 19.9131 21.1207 20.204 20.8298L21.7475 19.2863L17.989 15.5279L15.4834 18.0335L7.96648 10.5166L10.4721 8.011L6.71366 4.25255Z" fill="white"/>
</svg>
