<svg width="25" height="25" viewBox="0 0 25 25" fill="none" xmlns="http://www.w3.org/2000/svg">
    <path d="M11.276 22.9166C10.8072 22.9166 10.4037 22.7604 10.0655 22.4479C9.72735 22.1354 9.52318 21.7535 9.45304 21.3021L9.21867 19.5833C8.99297 19.4965 8.78047 19.3923 8.58117 19.2708C8.38186 19.1493 8.18638 19.0191 7.99471 18.8802L6.38013 19.5573C5.9461 19.7482 5.51207 19.7656 5.07804 19.6094C4.64402 19.4531 4.30547 19.1753 4.06242 18.776L2.83846 16.6406C2.5954 16.2413 2.52596 15.816 2.63013 15.3646C2.73429 14.9132 2.96867 14.5399 3.33325 14.2448L4.71346 13.2031C4.6961 13.0816 4.68742 12.9642 4.68742 12.851V12.1479C4.68742 12.0354 4.6961 11.9184 4.71346 11.7969L3.33325 10.7552C2.96867 10.46 2.73429 10.0868 2.63013 9.6354C2.52596 9.18401 2.5954 8.75866 2.83846 8.35935L4.06242 6.22394C4.30547 5.82463 4.64402 5.54685 5.07804 5.3906C5.51207 5.23435 5.9461 5.25172 6.38013 5.44269L7.99471 6.11977C8.18568 5.98088 8.38534 5.85067 8.59367 5.72915C8.802 5.60762 9.01034 5.50345 9.21867 5.41665L9.45304 3.6979C9.52249 3.24651 9.72665 2.86456 10.0655 2.55206C10.4044 2.23956 10.8079 2.08331 11.276 2.08331H13.7239C14.1926 2.08331 14.5964 2.23956 14.9353 2.55206C15.2742 2.86456 15.478 3.24651 15.5468 3.6979L15.7812 5.41665C16.0069 5.50345 16.2197 5.60762 16.4197 5.72915C16.6197 5.85067 16.8148 5.98088 17.0051 6.11977L18.6197 5.44269C19.0537 5.25172 19.4878 5.23435 19.9218 5.3906C20.3558 5.54685 20.6944 5.82463 20.9374 6.22394L22.1614 8.35935C22.4044 8.75866 22.4739 9.18401 22.3697 9.6354C22.2655 10.0868 22.0312 10.46 21.6666 10.7552L20.2864 11.7969C20.3037 11.9184 20.3124 12.0357 20.3124 12.1489V12.851C20.3124 12.9642 20.2951 13.0816 20.2603 13.2031L21.6405 14.2448C22.0051 14.5399 22.2395 14.9132 22.3437 15.3646C22.4478 15.816 22.3784 16.2413 22.1353 16.6406L20.8853 18.776C20.6423 19.1753 20.3037 19.4531 19.8697 19.6094C19.4357 19.7656 19.0017 19.7482 18.5676 19.5573L17.0051 18.8802C16.8142 19.0191 16.6145 19.1493 16.4062 19.2708C16.1978 19.3923 15.9895 19.4965 15.7812 19.5833L15.5468 21.3021C15.4773 21.7535 15.2735 22.1354 14.9353 22.4479C14.5971 22.7604 14.1933 22.9166 13.7239 22.9166H11.276ZM11.4583 20.8333H13.5155L13.8801 18.0729C14.4183 17.934 14.9176 17.7302 15.378 17.4614C15.8385 17.1927 16.2593 16.867 16.6405 16.4844L19.2187 17.5521L20.2343 15.7812L17.9947 14.0885C18.0815 13.8455 18.1423 13.5896 18.177 13.3208C18.2117 13.0521 18.2291 12.7785 18.2291 12.5C18.2291 12.2215 18.2117 11.9482 18.177 11.6802C18.1423 11.4121 18.0815 11.1559 17.9947 10.9114L20.2343 9.21873L19.2187 7.4479L16.6405 8.54165C16.2586 8.14234 15.8378 7.80831 15.378 7.53956C14.9183 7.27081 14.419 7.06665 13.8801 6.92706L13.5416 4.16665H11.4843L11.1197 6.92706C10.5815 7.06595 10.0826 7.27012 9.62283 7.53956C9.16311 7.80901 8.74193 8.13435 8.35929 8.5156L5.78117 7.4479L4.76554 9.21873L7.00513 10.8854C6.91832 11.1458 6.85756 11.4062 6.82284 11.6666C6.78811 11.9271 6.77075 12.2048 6.77075 12.5C6.77075 12.7778 6.78811 13.0469 6.82284 13.3073C6.85756 13.5677 6.91832 13.8281 7.00513 14.0885L4.76554 15.7812L5.78117 17.5521L8.35929 16.4583C8.74124 16.8576 9.16242 17.192 9.62283 17.4614C10.0833 17.7309 10.5822 17.9347 11.1197 18.0729L11.4583 20.8333ZM12.552 16.1458C13.5589 16.1458 14.4183 15.7899 15.1301 15.0781C15.8419 14.3663 16.1978 13.5069 16.1978 12.5C16.1978 11.493 15.8419 10.6337 15.1301 9.92185C14.4183 9.21005 13.5589 8.85415 12.552 8.85415C11.5277 8.85415 10.6642 9.21005 9.96138 9.92185C9.2586 10.6337 8.90686 11.493 8.90617 12.5C8.90547 13.5069 9.25721 14.3663 9.96138 15.0781C10.6655 15.7899 11.5291 16.1458 12.552 16.1458Z" fill="white"/>
</svg>
