<svg width="20" height="20" viewBox="0 0 20 20" fill="none" xmlns="http://www.w3.org/2000/svg">
    <path d="M18.3226 15.6083C18.2842 15.8632 18.1872 16.1057 18.0393 16.3167C17.892 16.524 17.697 16.6929 17.4707 16.8089C17.2445 16.925 16.9936 16.9848 16.7393 16.9833H15.3634C15.2656 16.9831 15.1692 16.9595 15.0822 16.9145C14.9953 16.8696 14.9203 16.8047 14.8634 16.725C14.8059 16.6454 14.7677 16.5536 14.7518 16.4567C14.7359 16.3598 14.7427 16.2605 14.7718 16.1667C15.0801 15.1833 15.0134 14.075 12.2209 12.3C12.1071 12.2255 12.02 12.1167 11.972 11.9894C11.9241 11.862 11.9179 11.7228 11.9543 11.5917C11.9933 11.4626 12.0726 11.3493 12.1805 11.2683C12.2884 11.1874 12.4194 11.143 12.5543 11.1417C13.7462 11.1579 14.9093 11.5097 15.9104 12.1568C16.9115 12.8038 17.71 13.7199 18.2143 14.8C18.3168 15.0563 18.354 15.3341 18.3226 15.6083ZM16.2384 6.41668C16.2362 7.39303 15.8473 8.32875 15.1569 9.01905C14.4664 9.70936 13.5306 10.098 12.5543 10.1C12.4449 10.098 12.3379 10.0677 12.2437 10.0121C12.1495 9.95649 12.0713 9.87741 12.0168 9.78258C11.9622 9.68775 11.9332 9.58041 11.9324 9.47101C11.9317 9.36162 11.9593 9.2539 12.0126 9.15835C12.5226 8.34246 12.793 7.39967 12.793 6.43752C12.793 5.47536 12.5226 4.53257 12.0126 3.71668C11.9472 3.62328 11.9087 3.51377 11.901 3.40002C11.8934 3.28627 11.9171 3.1726 11.9695 3.07133C12.0218 2.97005 12.1009 2.88503 12.1981 2.82545C12.2953 2.76588 12.4069 2.73403 12.5209 2.73335C13.0088 2.73211 13.4918 2.83051 13.9403 3.02252C14.3888 3.21454 14.7934 3.49612 15.1293 3.85002C15.8148 4.5422 16.2011 5.47585 16.2051 6.45002L16.2384 6.41668Z" fill="white"/>
    <path d="M13.8959 15.5834C13.9297 15.9913 13.8493 16.4006 13.6639 16.7655C13.4785 17.1305 13.1953 17.4367 12.8459 17.65C12.4976 17.8642 12.0959 17.9767 11.6876 17.975H3.87678C3.46791 17.9769 3.06668 17.8643 2.71844 17.65C2.36828 17.438 2.08479 17.1318 1.9003 16.7664C1.71582 16.4009 1.63779 15.991 1.67511 15.5834C1.70534 15.1766 1.84977 14.7867 2.09178 14.4584C2.7562 13.5743 3.61196 12.852 4.595 12.3455C5.57805 11.839 6.66292 11.5613 7.76844 11.5334C8.87776 11.5554 9.96755 11.8294 10.9553 12.3347C11.9431 12.84 12.8031 13.5634 13.4701 14.45C13.7126 14.7819 13.8605 15.1739 13.8959 15.5834ZM11.8709 6.10002C11.8687 7.18337 11.4379 8.22182 10.6725 8.98849C9.90703 9.75516 8.86929 10.1877 7.78594 10.1917C7.18276 10.1902 6.58738 10.0552 6.04256 9.79632C5.49774 9.53746 5.017 9.16118 4.63484 8.6945C4.25268 8.22781 3.97859 7.68231 3.83225 7.09714C3.68591 6.51197 3.67095 5.90166 3.78844 5.31002C3.90643 4.71824 4.15411 4.15997 4.51366 3.67536C4.87322 3.19074 5.33571 2.79185 5.86787 2.50736C6.40003 2.22287 6.98862 2.05987 7.59132 2.03007C8.19401 2.00027 8.79582 2.10442 9.35344 2.33502C10.0992 2.64293 10.737 3.16486 11.1864 3.83494C11.6358 4.50502 11.8766 5.29321 11.8784 6.10002H11.8709Z" fill="white"/>
</svg>
